<svg width="256" height="256" viewBox="0 0 256 256" fill="none" xmlns="http://www.w3.org/2000/svg">
<path d="M48.1246 196.935C42.8365 205.325 26.546 217.488 18 221.984C18 221.984 23.6404 222.241 28.2552 220.699L28.2553 220.699C34.0238 218.772 37.8695 217.488 46.2018 212.35C54.5341 207.212 58.3798 201.431 62.2255 195.008C66.0712 188.585 68.635 178.309 71.8398 166.106C75.0445 153.902 78.4226 139.667 80.3455 131.96C83.5502 119.115 86.5816 114.723 92.9911 105.089C99.4006 95.4549 109.656 85.1784 121.193 79.3979C132.73 73.6174 137.741 69.6629 155.804 67.1946C169.905 65.2678 188.388 66.4101 202.593 69.1215C216.053 71.6906 231.436 73.6174 234 72.9751C234 72.9751 231.061 67.66 228.872 65.2678C221.822 57.5604 208.362 47.9263 191.697 42.1458C175.033 36.3652 157.727 35.0807 137.217 40.2189C116.706 45.3571 105.169 52.4222 89.7864 67.1946C79.5312 77.0429 70.7322 89.8433 64.7893 115.366C60.3027 134.634 60.9436 151.975 58.3798 166.106C56.0753 178.807 55.816 184.732 48.1246 196.935Z" fill="#BB3910" stroke="#BB3910" stroke-width="6"/>
</svg>
