<svg width="128" height="128" viewBox="0 0 128 128" fill="none" xmlns="http://www.w3.org/2000/svg">
<circle cx="64" cy="64" r="50" fill="url(#paint0_radial_12_27)"/>
<circle cx="64" cy="64" r="50" fill="url(#paint1_radial_12_27)" fill-opacity="0.2"/>
<path d="M31.0673 92.2006V36.0566H52.2817C56.185 36.0566 59.5537 36.7383 62.3876 38.1018C65.2483 39.4386 67.4539 41.3502 69.0046 43.8365C70.582 46.3229 71.3707 49.2772 71.3707 52.6993C71.3707 55.4797 70.7691 57.9394 69.566 60.0782C68.3897 62.217 66.7321 63.9815 64.5933 65.3718C62.4544 66.7353 59.9814 67.6576 57.1742 68.1389L74.0976 92.2006H63.2298L47.71 69.5425H40.0503V92.2006H31.0673ZM40.0503 62.0833H50.7979C54.4339 62.0833 57.2544 61.308 59.2596 59.7574C61.2915 58.2067 62.3074 55.9877 62.3074 53.1003C62.3074 50.1327 61.3984 47.8201 59.5804 46.1625C57.7891 44.5049 55.0755 43.6761 51.4395 43.6761H40.0503V62.0833Z" fill="white"/>
<path d="M85.3614 69.2478C83.53 69.2478 82.0128 68.8869 80.8097 68.165C79.62 67.4432 78.7311 66.454 78.1429 65.1974C77.5547 63.9408 77.2606 62.5172 77.2606 60.9264V48.3943H83.1157V59.984C83.1157 61.1871 83.4432 62.1429 84.0982 62.8514C84.7666 63.5599 85.7223 63.9141 86.9655 63.9141C87.7676 63.9141 88.4761 63.7403 89.091 63.3928C89.7059 63.0318 90.1804 62.5306 90.5146 61.8889C90.8622 61.2473 91.036 60.5054 91.036 59.6632V48.3943H96.891V68.6462H91.7979V66.4205C91.1028 67.2226 90.2406 67.8977 89.2113 68.4457C88.1953 68.9804 86.9121 69.2478 85.3614 69.2478Z" fill="white"/>
<path d="M85.3614 91.9167C83.53 91.9167 82.0128 91.5558 80.8097 90.834C79.62 90.1121 78.7311 89.1229 78.1429 87.8664C77.5547 86.6098 77.2606 85.1862 77.2606 83.5954V71.0633H83.1157V82.653C83.1157 83.8561 83.4432 84.8119 84.0982 85.5203C84.7666 86.2288 85.7223 86.5831 86.9655 86.5831C87.7676 86.5831 88.4761 86.4093 89.091 86.0617C89.7059 85.7008 90.1804 85.1995 90.5146 84.5579C90.8622 83.9162 91.036 83.1743 91.036 82.3322V71.0633H96.891V91.3152H91.7979V89.0895C91.1028 89.8916 90.2406 90.5666 89.2113 91.1147C88.1953 91.6494 86.9121 91.9167 85.3614 91.9167Z" fill="white"/>
<defs>
<radialGradient id="paint0_radial_12_27" cx="0" cy="0" r="1" gradientUnits="userSpaceOnUse" gradientTransform="translate(14.2005 113.8) rotate(-45) scale(141.138)">
<stop stop-color="#E70707"/>
<stop offset="1" stop-color="#E75107"/>
</radialGradient>
<radialGradient id="paint1_radial_12_27" cx="0" cy="0" r="1" gradientUnits="userSpaceOnUse" gradientTransform="translate(64.1002 14) rotate(63.435) scale(111.579)">
<stop stop-color="#E70707" stop-opacity="0.2"/>
<stop offset="1" stop-opacity="0"/>
<stop offset="1" stop-color="#E75107" stop-opacity="0.8"/>
</radialGradient>
</defs>
</svg>
