<svg width="128" height="128" viewBox="0 0 128 128" fill="none" xmlns="http://www.w3.org/2000/svg">
<g clip-path="url(#clip0_11_13)">
<path d="M21.9057 100.041V28.2166H49.0449C54.0384 28.2166 58.3478 29.0887 61.9732 30.833C65.6328 32.5431 68.4545 34.9886 70.4382 38.1693C72.4561 41.3501 73.465 45.1294 73.465 49.5073C73.465 53.0643 72.6955 56.2108 71.1564 58.947C69.6515 61.6831 67.531 63.9405 64.7949 65.719C62.0587 67.4633 58.895 68.6432 55.3038 69.2589L76.9536 100.041H63.0506L43.1964 71.0545H33.3975V100.041H21.9057ZM33.3975 61.5121H47.1467C51.7981 61.5121 55.4064 60.5203 57.9716 58.5366C60.5709 56.5529 61.8706 53.7141 61.8706 50.0203C61.8706 46.2239 60.7077 43.2654 58.382 41.1449C56.0905 39.0244 52.619 37.9641 47.9675 37.9641H33.3975V61.5121Z" fill="url(#paint0_radial_11_13)"/>
<path d="M21.9057 100.041V28.2166H49.0449C54.0384 28.2166 58.3478 29.0887 61.9732 30.833C65.6328 32.5431 68.4545 34.9886 70.4382 38.1693C72.4561 41.3501 73.465 45.1294 73.465 49.5073C73.465 53.0643 72.6955 56.2108 71.1564 58.947C69.6515 61.6831 67.531 63.9405 64.7949 65.719C62.0587 67.4633 58.895 68.6432 55.3038 69.2589L76.9536 100.041H63.0506L43.1964 71.0545H33.3975V100.041H21.9057ZM33.3975 61.5121H47.1467C51.7981 61.5121 55.4064 60.5203 57.9716 58.5366C60.5709 56.5529 61.8706 53.7141 61.8706 50.0203C61.8706 46.2239 60.7077 43.2654 58.382 41.1449C56.0905 39.0244 52.619 37.9641 47.9675 37.9641H33.3975V61.5121Z" fill="url(#paint1_radial_11_13)" fill-opacity="0.2"/>
<path d="M91.3632 70.6775C89.0203 70.6775 87.0794 70.2158 85.5403 69.2923C84.0183 68.3689 82.8811 67.1034 82.1287 65.4959C81.3762 63.8884 81 62.0672 81 60.0321V44H88.4902V58.8265C88.4902 60.3656 88.9092 61.5883 89.7471 62.4947C90.6022 63.401 91.8249 63.8542 93.4153 63.8542C94.4414 63.8542 95.3477 63.6319 96.1343 63.1873C96.921 62.7255 97.5281 62.0843 97.9556 61.2634C98.4002 60.4426 98.6225 59.4935 98.6225 58.4161V44H106.113V69.9079H99.5973V67.0606C98.708 68.0867 97.605 68.9503 96.2883 69.6514C94.9886 70.3355 93.3469 70.6775 91.3632 70.6775Z" fill="url(#paint2_radial_11_13)"/>
<path d="M91.3632 70.6775C89.0203 70.6775 87.0794 70.2158 85.5403 69.2923C84.0183 68.3689 82.8811 67.1034 82.1287 65.4959C81.3762 63.8884 81 62.0672 81 60.0321V44H88.4902V58.8265C88.4902 60.3656 88.9092 61.5883 89.7471 62.4947C90.6022 63.401 91.8249 63.8542 93.4153 63.8542C94.4414 63.8542 95.3477 63.6319 96.1343 63.1873C96.921 62.7255 97.5281 62.0843 97.9556 61.2634C98.4002 60.4426 98.6225 59.4935 98.6225 58.4161V44H106.113V69.9079H99.5973V67.0606C98.708 68.0867 97.605 68.9503 96.2883 69.6514C94.9886 70.3355 93.3469 70.6775 91.3632 70.6775Z" fill="url(#paint3_radial_11_13)" fill-opacity="0.2"/>
<path d="M91.3632 99.6775C89.0203 99.6775 87.0794 99.2158 85.5403 98.2923C84.0183 97.3689 82.8811 96.1034 82.1287 94.4959C81.3762 92.8884 81 91.0672 81 89.0321V73H88.4902V87.8265C88.4902 89.3656 88.9092 90.5883 89.7471 91.4947C90.6022 92.401 91.8249 92.8542 93.4153 92.8542C94.4414 92.8542 95.3477 92.6319 96.1343 92.1873C96.921 91.7255 97.5281 91.0843 97.9556 90.2634C98.4002 89.4426 98.6225 88.4935 98.6225 87.4161V73H106.113V98.9079H99.5973V96.0606C98.708 97.0867 97.605 97.9503 96.2883 98.6514C94.9886 99.3355 93.3469 99.6775 91.3632 99.6775Z" fill="url(#paint4_radial_11_13)"/>
<path d="M91.3632 99.6775C89.0203 99.6775 87.0794 99.2158 85.5403 98.2923C84.0183 97.3689 82.8811 96.1034 82.1287 94.4959C81.3762 92.8884 81 91.0672 81 89.0321V73H88.4902V87.8265C88.4902 89.3656 88.9092 90.5883 89.7471 91.4947C90.6022 92.401 91.8249 92.8542 93.4153 92.8542C94.4414 92.8542 95.3477 92.6319 96.1343 92.1873C96.921 91.7255 97.5281 91.0843 97.9556 90.2634C98.4002 89.4426 98.6225 88.4935 98.6225 87.4161V73H106.113V98.9079H99.5973V96.0606C98.708 97.0867 97.605 97.9503 96.2883 98.6514C94.9886 99.3355 93.3469 99.6775 91.3632 99.6775Z" fill="url(#paint5_radial_11_13)" fill-opacity="0.2"/>
</g>
<defs>
<radialGradient id="paint0_radial_11_13" cx="0" cy="0" r="1" gradientUnits="userSpaceOnUse" gradientTransform="translate(-1.2856 143.007) rotate(-56.0098) scale(150.821 164.74)">
<stop stop-color="#E70707"/>
<stop offset="1" stop-color="#E75107"/>
</radialGradient>
<radialGradient id="paint1_radial_11_13" cx="0" cy="0" r="1" gradientUnits="userSpaceOnUse" gradientTransform="translate(35.029 5.77158) rotate(65.5984) scale(116.191 109.729)">
<stop stop-color="#E70707" stop-opacity="0.2"/>
<stop offset="1" stop-color="#E75107" stop-opacity="0.8"/>
</radialGradient>
<radialGradient id="paint2_radial_11_13" cx="0" cy="0" r="1" gradientUnits="userSpaceOnUse" gradientTransform="translate(70.4202 86.6363) rotate(-50.3704) scale(60.3069 69.8107)">
<stop stop-color="#E70707"/>
<stop offset="1" stop-color="#E75107"/>
</radialGradient>
<radialGradient id="paint3_radial_11_13" cx="0" cy="0" r="1" gradientUnits="userSpaceOnUse" gradientTransform="translate(86.9868 35.6633) rotate(60.8739) scale(44.9907 48.0174)">
<stop stop-color="#E70707" stop-opacity="0.2"/>
<stop offset="1" stop-color="#E75107" stop-opacity="0.8"/>
</radialGradient>
<radialGradient id="paint4_radial_11_13" cx="0" cy="0" r="1" gradientUnits="userSpaceOnUse" gradientTransform="translate(70.4202 115.636) rotate(-50.3704) scale(60.3069 69.8107)">
<stop stop-color="#E70707"/>
<stop offset="1" stop-color="#E75107"/>
</radialGradient>
<radialGradient id="paint5_radial_11_13" cx="0" cy="0" r="1" gradientUnits="userSpaceOnUse" gradientTransform="translate(86.9868 64.6633) rotate(60.8739) scale(44.9907 48.0174)">
<stop stop-color="#E70707" stop-opacity="0.2"/>
<stop offset="1" stop-color="#E75107" stop-opacity="0.8"/>
</radialGradient>
<clipPath id="clip0_11_13">
<rect width="128" height="128" fill="white"/>
</clipPath>
</defs>
</svg>
