<svg width="128" height="128" viewBox="0 0 128 128" fill="none" xmlns="http://www.w3.org/2000/svg">
<path d="M11.104 56V22.4H24.424C26.856 22.4 28.976 22.808 30.784 23.624C32.608 24.424 34.008 25.584 34.984 27.104C35.976 28.624 36.472 30.44 36.472 32.552C36.472 34.216 36.144 35.68 35.488 36.944C34.832 38.192 33.928 39.232 32.776 40.064C31.64 40.896 30.328 41.496 28.84 41.864L38.248 56H29.776L21.688 43.232H18.208V56H11.104ZM18.208 37.496H23.488C25.312 37.496 26.736 37.128 27.76 36.392C28.8 35.64 29.32 34.504 29.32 32.984C29.32 31.416 28.84 30.24 27.88 29.456C26.936 28.672 25.552 28.28 23.728 28.28H18.208V37.496ZM52.489 56.72C50.297 56.72 48.481 56.288 47.041 55.424C45.617 54.56 44.553 53.376 43.849 51.872C43.145 50.368 42.793 48.664 42.793 46.76V31.76H49.801V45.632C49.801 47.072 50.193 48.216 50.977 49.064C51.777 49.912 52.921 50.336 54.409 50.336C55.369 50.336 56.217 50.128 56.953 49.712C57.689 49.28 58.257 48.68 58.657 47.912C59.073 47.144 59.281 46.256 59.281 45.248V31.76H66.289V56H60.193V53.336C59.361 54.296 58.329 55.104 57.097 55.76C55.881 56.4 54.345 56.72 52.489 56.72ZM82.5828 56.72C80.3908 56.72 78.5748 56.288 77.1348 55.424C75.7108 54.56 74.6468 53.376 73.9428 51.872C73.2388 50.368 72.8867 48.664 72.8867 46.76V31.76H79.8948V45.632C79.8948 47.072 80.2868 48.216 81.0708 49.064C81.8708 49.912 83.0148 50.336 84.5028 50.336C85.4628 50.336 86.3108 50.128 87.0468 49.712C87.7828 49.28 88.3508 48.68 88.7508 47.912C89.1668 47.144 89.3748 46.256 89.3748 45.248V31.76H96.3828V56H90.2868V53.336C89.4548 54.296 88.4228 55.104 87.1908 55.76C85.9748 56.4 84.4388 56.72 82.5828 56.72Z" fill="url(#paint0_radial_11_23)"/>
<path d="M11.104 56V22.4H24.424C26.856 22.4 28.976 22.808 30.784 23.624C32.608 24.424 34.008 25.584 34.984 27.104C35.976 28.624 36.472 30.44 36.472 32.552C36.472 34.216 36.144 35.68 35.488 36.944C34.832 38.192 33.928 39.232 32.776 40.064C31.64 40.896 30.328 41.496 28.84 41.864L38.248 56H29.776L21.688 43.232H18.208V56H11.104ZM18.208 37.496H23.488C25.312 37.496 26.736 37.128 27.76 36.392C28.8 35.64 29.32 34.504 29.32 32.984C29.32 31.416 28.84 30.24 27.88 29.456C26.936 28.672 25.552 28.28 23.728 28.28H18.208V37.496ZM52.489 56.72C50.297 56.72 48.481 56.288 47.041 55.424C45.617 54.56 44.553 53.376 43.849 51.872C43.145 50.368 42.793 48.664 42.793 46.76V31.76H49.801V45.632C49.801 47.072 50.193 48.216 50.977 49.064C51.777 49.912 52.921 50.336 54.409 50.336C55.369 50.336 56.217 50.128 56.953 49.712C57.689 49.28 58.257 48.68 58.657 47.912C59.073 47.144 59.281 46.256 59.281 45.248V31.76H66.289V56H60.193V53.336C59.361 54.296 58.329 55.104 57.097 55.76C55.881 56.4 54.345 56.72 52.489 56.72ZM82.5828 56.72C80.3908 56.72 78.5748 56.288 77.1348 55.424C75.7108 54.56 74.6468 53.376 73.9428 51.872C73.2388 50.368 72.8867 48.664 72.8867 46.76V31.76H79.8948V45.632C79.8948 47.072 80.2868 48.216 81.0708 49.064C81.8708 49.912 83.0148 50.336 84.5028 50.336C85.4628 50.336 86.3108 50.128 87.0468 49.712C87.7828 49.28 88.3508 48.68 88.7508 47.912C89.1668 47.144 89.3748 46.256 89.3748 45.248V31.76H96.3828V56H90.2868V53.336C89.4548 54.296 88.4228 55.104 87.1908 55.76C85.9748 56.4 84.4388 56.72 82.5828 56.72Z" fill="url(#paint1_radial_11_23)" fill-opacity="0.2"/>
<path d="M11.104 103V69.4H18.208V96.496H32.08V103H11.104ZM44.2698 103.72C42.6378 103.72 41.1818 103.408 39.9018 102.784C38.6218 102.16 37.6138 101.272 36.8778 100.12C36.1418 98.952 35.7738 97.56 35.7738 95.944C35.7738 94.568 36.1178 93.344 36.8058 92.272C37.4938 91.2 38.5338 90.32 39.9258 89.632C41.3338 88.928 43.1098 88.456 45.2538 88.216C47.4138 87.96 49.9578 87.976 52.8858 88.264L52.9578 92.728C51.2138 92.44 49.6698 92.304 48.3258 92.32C46.9978 92.336 45.8778 92.472 44.9658 92.728C44.0698 92.984 43.3898 93.36 42.9258 93.856C42.4618 94.336 42.2298 94.92 42.2298 95.608C42.2298 96.552 42.5818 97.28 43.2858 97.792C43.9898 98.288 44.9418 98.536 46.1418 98.536C47.1818 98.536 48.1178 98.352 48.9498 97.984C49.7818 97.616 50.4458 97.08 50.9418 96.376C51.4378 95.672 51.6858 94.816 51.6858 93.808V88C51.6858 87.056 51.4858 86.232 51.0858 85.528C50.7018 84.808 50.0938 84.256 49.2618 83.872C48.4298 83.472 47.3418 83.272 45.9978 83.272C44.7498 83.272 43.5018 83.464 42.2538 83.848C41.0218 84.216 39.8938 84.784 38.8698 85.552L37.0218 80.656C38.5738 79.664 40.2218 78.944 41.9658 78.496C43.7098 78.032 45.4138 77.8 47.0778 77.8C49.3498 77.8 51.3338 78.16 53.0298 78.88C54.7258 79.6 56.0378 80.712 56.9658 82.216C57.9098 83.704 58.3818 85.6 58.3818 87.904V103H52.2858V100.336C51.4858 101.424 50.3898 102.264 48.9978 102.856C47.6058 103.432 46.0298 103.72 44.2698 103.72ZM64.8768 103V78.76H71.8848V81.496C72.8128 80.28 73.9088 79.4 75.1728 78.856C76.4528 78.312 77.7888 78.04 79.1808 78.04C81.4368 78.04 83.2928 78.488 84.7488 79.384C86.2208 80.264 87.3088 81.408 88.0128 82.816C88.7328 84.224 89.0928 85.704 89.0928 87.256V103H82.0848V89.44C82.0848 87.904 81.6528 86.68 80.7888 85.768C79.9408 84.856 78.7088 84.4 77.0928 84.4C76.0688 84.4 75.1648 84.632 74.3808 85.096C73.5968 85.544 72.9808 86.176 72.5328 86.992C72.1008 87.808 71.8848 88.752 71.8848 89.824V103H64.8768ZM105.13 113.8C103.322 113.8 101.69 113.64 100.234 113.32C98.7936 113.016 97.5536 112.568 96.5136 111.976C95.4896 111.4 94.6976 110.696 94.1376 109.864C93.5936 109.032 93.3216 108.104 93.3216 107.08C93.3216 106.28 93.5456 105.52 93.9936 104.8C94.4416 104.096 95.0816 103.488 95.9136 102.976C96.7616 102.448 97.7936 102.064 99.0096 101.824C98.0816 101.312 97.3936 100.736 96.9456 100.096C96.4976 99.44 96.2736 98.704 96.2736 97.888C96.2736 97.168 96.4896 96.48 96.9216 95.824C97.3536 95.168 97.9536 94.584 98.7216 94.072C99.5056 93.56 100.418 93.152 101.458 92.848C102.514 92.528 103.658 92.368 104.89 92.368L106.234 95.104C105.306 95.104 104.53 95.168 103.906 95.296C103.298 95.424 102.834 95.616 102.514 95.872C102.21 96.128 102.058 96.424 102.058 96.76C102.058 97.192 102.314 97.52 102.826 97.744C103.338 97.968 104.162 98.128 105.298 98.224L109.426 98.584C111.442 98.76 113.186 99.096 114.658 99.592C116.13 100.088 117.258 100.8 118.042 101.728C118.842 102.64 119.242 103.816 119.242 105.256C119.242 106.472 118.906 107.6 118.234 108.64C117.578 109.696 116.626 110.608 115.378 111.376C114.13 112.144 112.642 112.736 110.914 113.152C109.186 113.584 107.258 113.8 105.13 113.8ZM106.09 109.288C108.154 109.288 109.778 109 110.962 108.424C112.162 107.848 112.762 107.104 112.762 106.192C112.762 105.488 112.386 104.944 111.634 104.56C110.898 104.192 109.746 103.944 108.178 103.816L103.618 103.48C102.754 103.56 102.01 103.72 101.386 103.96C100.778 104.216 100.314 104.536 99.9936 104.92C99.6736 105.32 99.5136 105.76 99.5136 106.24C99.5136 106.848 99.7776 107.376 100.306 107.824C100.85 108.288 101.61 108.648 102.586 108.904C103.562 109.16 104.73 109.288 106.09 109.288ZM105.778 95.416C103.666 95.416 101.794 95.032 100.162 94.264C98.5456 93.496 97.2736 92.456 96.3456 91.144C95.4176 89.832 94.9536 88.352 94.9536 86.704C94.9536 85.104 95.4176 83.648 96.3456 82.336C97.2896 81.024 98.5776 79.984 100.21 79.216C101.842 78.432 103.698 78.04 105.778 78.04C107.842 78.04 109.69 78.424 111.322 79.192C112.954 79.96 114.234 81 115.162 82.312C116.106 83.608 116.578 85.072 116.578 86.704C116.578 88.32 116.114 89.784 115.186 91.096C114.258 92.408 112.978 93.456 111.346 94.24C109.73 95.024 107.874 95.416 105.778 95.416ZM105.778 90.544C106.706 90.544 107.53 90.384 108.25 90.064C108.97 89.728 109.538 89.272 109.954 88.696C110.37 88.12 110.578 87.456 110.578 86.704C110.578 85.568 110.122 84.648 109.21 83.944C108.314 83.24 107.17 82.888 105.778 82.888C104.85 82.888 104.026 83.056 103.306 83.392C102.586 83.712 102.018 84.16 101.602 84.736C101.186 85.296 100.978 85.952 100.978 86.704C100.978 87.84 101.426 88.768 102.322 89.488C103.234 90.192 104.386 90.544 105.778 90.544ZM109.474 84.064L106.834 79.456L120.73 78.76V84.376L109.474 84.064Z" fill="url(#paint2_radial_11_23)"/>
<path d="M11.104 103V69.4H18.208V96.496H32.08V103H11.104ZM44.2698 103.72C42.6378 103.72 41.1818 103.408 39.9018 102.784C38.6218 102.16 37.6138 101.272 36.8778 100.12C36.1418 98.952 35.7738 97.56 35.7738 95.944C35.7738 94.568 36.1178 93.344 36.8058 92.272C37.4938 91.2 38.5338 90.32 39.9258 89.632C41.3338 88.928 43.1098 88.456 45.2538 88.216C47.4138 87.96 49.9578 87.976 52.8858 88.264L52.9578 92.728C51.2138 92.44 49.6698 92.304 48.3258 92.32C46.9978 92.336 45.8778 92.472 44.9658 92.728C44.0698 92.984 43.3898 93.36 42.9258 93.856C42.4618 94.336 42.2298 94.92 42.2298 95.608C42.2298 96.552 42.5818 97.28 43.2858 97.792C43.9898 98.288 44.9418 98.536 46.1418 98.536C47.1818 98.536 48.1178 98.352 48.9498 97.984C49.7818 97.616 50.4458 97.08 50.9418 96.376C51.4378 95.672 51.6858 94.816 51.6858 93.808V88C51.6858 87.056 51.4858 86.232 51.0858 85.528C50.7018 84.808 50.0938 84.256 49.2618 83.872C48.4298 83.472 47.3418 83.272 45.9978 83.272C44.7498 83.272 43.5018 83.464 42.2538 83.848C41.0218 84.216 39.8938 84.784 38.8698 85.552L37.0218 80.656C38.5738 79.664 40.2218 78.944 41.9658 78.496C43.7098 78.032 45.4138 77.8 47.0778 77.8C49.3498 77.8 51.3338 78.16 53.0298 78.88C54.7258 79.6 56.0378 80.712 56.9658 82.216C57.9098 83.704 58.3818 85.6 58.3818 87.904V103H52.2858V100.336C51.4858 101.424 50.3898 102.264 48.9978 102.856C47.6058 103.432 46.0298 103.72 44.2698 103.72ZM64.8768 103V78.76H71.8848V81.496C72.8128 80.28 73.9088 79.4 75.1728 78.856C76.4528 78.312 77.7888 78.04 79.1808 78.04C81.4368 78.04 83.2928 78.488 84.7488 79.384C86.2208 80.264 87.3088 81.408 88.0128 82.816C88.7328 84.224 89.0928 85.704 89.0928 87.256V103H82.0848V89.44C82.0848 87.904 81.6528 86.68 80.7888 85.768C79.9408 84.856 78.7088 84.4 77.0928 84.4C76.0688 84.4 75.1648 84.632 74.3808 85.096C73.5968 85.544 72.9808 86.176 72.5328 86.992C72.1008 87.808 71.8848 88.752 71.8848 89.824V103H64.8768ZM105.13 113.8C103.322 113.8 101.69 113.64 100.234 113.32C98.7936 113.016 97.5536 112.568 96.5136 111.976C95.4896 111.4 94.6976 110.696 94.1376 109.864C93.5936 109.032 93.3216 108.104 93.3216 107.08C93.3216 106.28 93.5456 105.52 93.9936 104.8C94.4416 104.096 95.0816 103.488 95.9136 102.976C96.7616 102.448 97.7936 102.064 99.0096 101.824C98.0816 101.312 97.3936 100.736 96.9456 100.096C96.4976 99.44 96.2736 98.704 96.2736 97.888C96.2736 97.168 96.4896 96.48 96.9216 95.824C97.3536 95.168 97.9536 94.584 98.7216 94.072C99.5056 93.56 100.418 93.152 101.458 92.848C102.514 92.528 103.658 92.368 104.89 92.368L106.234 95.104C105.306 95.104 104.53 95.168 103.906 95.296C103.298 95.424 102.834 95.616 102.514 95.872C102.21 96.128 102.058 96.424 102.058 96.76C102.058 97.192 102.314 97.52 102.826 97.744C103.338 97.968 104.162 98.128 105.298 98.224L109.426 98.584C111.442 98.76 113.186 99.096 114.658 99.592C116.13 100.088 117.258 100.8 118.042 101.728C118.842 102.64 119.242 103.816 119.242 105.256C119.242 106.472 118.906 107.6 118.234 108.64C117.578 109.696 116.626 110.608 115.378 111.376C114.13 112.144 112.642 112.736 110.914 113.152C109.186 113.584 107.258 113.8 105.13 113.8ZM106.09 109.288C108.154 109.288 109.778 109 110.962 108.424C112.162 107.848 112.762 107.104 112.762 106.192C112.762 105.488 112.386 104.944 111.634 104.56C110.898 104.192 109.746 103.944 108.178 103.816L103.618 103.48C102.754 103.56 102.01 103.72 101.386 103.96C100.778 104.216 100.314 104.536 99.9936 104.92C99.6736 105.32 99.5136 105.76 99.5136 106.24C99.5136 106.848 99.7776 107.376 100.306 107.824C100.85 108.288 101.61 108.648 102.586 108.904C103.562 109.16 104.73 109.288 106.09 109.288ZM105.778 95.416C103.666 95.416 101.794 95.032 100.162 94.264C98.5456 93.496 97.2736 92.456 96.3456 91.144C95.4176 89.832 94.9536 88.352 94.9536 86.704C94.9536 85.104 95.4176 83.648 96.3456 82.336C97.2896 81.024 98.5776 79.984 100.21 79.216C101.842 78.432 103.698 78.04 105.778 78.04C107.842 78.04 109.69 78.424 111.322 79.192C112.954 79.96 114.234 81 115.162 82.312C116.106 83.608 116.578 85.072 116.578 86.704C116.578 88.32 116.114 89.784 115.186 91.096C114.258 92.408 112.978 93.456 111.346 94.24C109.73 95.024 107.874 95.416 105.778 95.416ZM105.778 90.544C106.706 90.544 107.53 90.384 108.25 90.064C108.97 89.728 109.538 89.272 109.954 88.696C110.37 88.12 110.578 87.456 110.578 86.704C110.578 85.568 110.122 84.648 109.21 83.944C108.314 83.24 107.17 82.888 105.778 82.888C104.85 82.888 104.026 83.056 103.306 83.392C102.586 83.712 102.018 84.16 101.602 84.736C101.186 85.296 100.978 85.952 100.978 86.704C100.978 87.84 101.426 88.768 102.322 89.488C103.234 90.192 104.386 90.544 105.778 90.544ZM109.474 84.064L106.834 79.456L120.73 78.76V84.376L109.474 84.064Z" fill="url(#paint3_radial_11_23)" fill-opacity="0.2"/>
<defs>
<radialGradient id="paint0_radial_11_23" cx="0" cy="0" r="1" gradientUnits="userSpaceOnUse" gradientTransform="translate(16.0933 86.0769) rotate(-39.5085) scale(104.468 546.26)">
<stop stop-color="#E70707"/>
<stop offset="1" stop-color="#E75107"/>
</radialGradient>
<radialGradient id="paint1_radial_11_23" cx="0" cy="0" r="1" gradientUnits="userSpaceOnUse" gradientTransform="translate(38.4133 -4.84616) rotate(60.3212) scale(99.3395 304.497)">
<stop stop-color="#E70707" stop-opacity="0.2"/>
<stop offset="1" stop-color="#E75107" stop-opacity="0.8"/>
</radialGradient>
<radialGradient id="paint2_radial_11_23" cx="0" cy="0" r="1" gradientUnits="userSpaceOnUse" gradientTransform="translate(18.2444 133.077) rotate(-33.6969) scale(119.794 589.063)">
<stop stop-color="#E70707"/>
<stop offset="1" stop-color="#E75107"/>
</radialGradient>
<radialGradient id="paint3_radial_11_23" cx="0" cy="0" r="1" gradientUnits="userSpaceOnUse" gradientTransform="translate(45.8444 42.1538) rotate(54.8271) scale(105.586 354.253)">
<stop stop-color="#E70707" stop-opacity="0.2"/>
<stop offset="1" stop-color="#E75107" stop-opacity="0.8"/>
</radialGradient>
</defs>
</svg>
